<svg height="512" viewBox="0 0 58 58" width="512" xmlns="http://www.w3.org/2000/svg"><g id="Page-1" fill="none" fill-rule="evenodd"><g id="026---Searching-Web" fill-rule="nonzero" transform="translate(-1)"><path id="Shape" d="m46 22.5c0 .43-.01.86-.04 1.28l-21.18 21.18c-.42.03-.85.04-1.28.04-9.5606943.0029124-18.07919631-6.0364838-21.24091507-15.059256-3.16171876-9.0227723-.27613155-19.0583375 7.195222-25.02371769 7.47135357-5.9653802 17.89672187-6.55772999 25.99569307-1.47702631 6.5638479 4.11304167 10.5496631 11.3139552 10.55 19.06z" fill="#2980ba"/><path id="Shape" d="m42 13c.0042638 9.5765189-5.9285253 18.1525655-14.8912704 21.525833-8.962745 3.3732675-19.07779743.8370739-25.3887296-6.365833-2.31797648-8.922443 1.0412388-18.35619785 8.4767938-23.80555805 7.435555-5.44936021 17.4429892-5.81173865 25.2532062-.91444195 2.4367719 1.51824927 4.5559093 3.49475241 6.24 5.82.2099067 1.2355316.3136189 2.4867698.31 3.74z" fill="#3b97d3"/><g fill="#4fba6f"><path id="Shape" d="m46 22.5c0 .43-.01.86-.04 1.28l-6.3 6.31c-10.58-.51-8.95-8.37-5.82-10.33 2.8232299-1.9549697 4.1123151-5.4739319 3.22-8.79-.43-1.58-1.33-3.01-1.72-4.6-.2596926-.96540665-.2213474-1.98678257.11-2.93 6.5705806 4.10666078 10.558645 11.3116378 10.55 19.06z"/><path id="Shape" d="m19.28 19.6c.79 1.53.21 3.45-.79 4.85s-2.4 2.46-3.5 3.8c-.7068591.8703088-1.298414 1.8282244-1.76 2.85-.39.84-.97 1.89-1.89 1.78-.6439042-.1628859-1.1062875-.7266691-1.14-1.39-.0225026-.6478654.0345909-1.2960439.17-1.93.1958816-1.6421386-.2481831-3.2966376-1.24-4.62-1.02-1.36-2.67-2.53-2.64-4.23.15039045-1.0482102.60599043-2.0289674 1.31-2.82.70772068-.8019634 1.03887474-1.8682066.91-2.93-.38585051-.9531693-1.11828075-1.7249006-2.05-2.16-.87-.54-1.73-1.07-2.6-1.62 3.77595132-6.50060862 10.5558514-10.67891911 18.06-11.13-.718416 2.22293209-1.6319731 4.37798993-2.73 6.44-.346355.84429965-.9805019 1.5386728-1.79 1.96-1.28.51-2.81-.36-4.08.19-.7195781.34843753-1.2209548 1.02941185-1.34 1.82-.1171348.7844398-.0204005 1.5859524.28 2.32.5385879 1.4712221 1.5072062 2.7464535 2.78 3.66 1.41 1.01 3.25 1.62 4.04 3.16z"/><path id="Shape" d="m24.472 10.864c-.533.495-1.116 1.123-1 1.837.2165391.6961904.8447977 1.1830609 1.573 1.219.710465.0227428 1.416469.1213017 2.106.294.505.2.92.567 1.4.809.4748621.292399 1.0760698.2834316 1.542-.023.3397967-.3401397.4760922-.8336887.359-1.3-.1205692-.4516405-.2767242-.8930209-.467-1.32-.2973927-.8434643-.3500886-1.7538559-.152-2.626.246-1.084.508-3.532-1.373-2.508-1.46.793-2.77 2.486-3.988 3.618z"/></g><path id="Shape" d="m46 22.5c0 .43-.01.86-.04 1.28l-6.3 6.31c-1.4990651-.0413538-2.9815603-.3250203-4.39-.84 4.3132351-4.3073717 6.7347674-10.154311 6.73-16.25.0036189-1.2532302-.1000933-2.5044684-.31-3.74 2.8082493 3.8426179 4.3180447 8.4805976 4.31 13.24z" fill="#24ae5f"/><path id="Shape" d="m45.915 42.085 4.425 4.425-.34 2.49-2.49.34-4.425-4.425z" fill="#7f8c8d"/><circle id="Oval" cx="35" cy="34" fill="#95a5a5" r="15"/><circle id="Oval" cx="35" cy="34" fill="#7f8c8d" r="13"/><path id="Shape" d="m46 34c-.0052682 5.4858701-4.0517479 10.1292916-9.485367 10.8846603-5.433619.7553687-10.5932177-2.6082458-12.094633-7.8846603-.2827825-.9747612-.4242241-1.9850578-.42-3 0-6.0751322 4.9248678-11 11-11s11 4.9248678 11 11z" fill="#2980ba"/><path id="Shape" d="m40 27c-.0004017 3.745271-1.906388 7.2329943-5.0582746 9.2560281-3.1518867 2.0230338-7.1165318 2.3033666-10.5217254.7439719-.2827825-.9747612-.4242241-1.9850578-.42-3 .0004017-3.745271 1.906388-7.2329943 5.0582746-9.2560281 3.1518867-2.0230338 7.1165318-2.3033666 10.5217254-.7439719.2827825.9747612.4242241 1.9850578.42 3z" fill="#3b97d3"/><path id="Shape" d="m51.5247809 46.025h4c.5522848 0 1 .4477153 1 1v9c0 1.6568542-1.3431457 3-3 3-1.6568542 0-3-1.3431458-3-3v-9c0-.2652165.1053569-.5195704.2928932-.7071068.1875364-.1875364.4418903-.2928932.7071068-.2928932z" fill="#f0c419" transform="matrix(.707 -.707 .707 .707 -21.464 53.232)"/><path id="Shape" d="m36 29.91c-.09 1.8-1.85 3.1-3.59 3.53s-3.58.27-5.35.6c-1.0970165.1966619-2.1200655.6874488-2.96 1.42-.0684678-.4836215-.1018882-.9715596-.1-1.46-.0012872-5.5558747 4.1448515-10.238522 9.66-10.91-.0953461 1.2192343.2644861 2.4305506 1.01 3.4.7782638.9796847 1.2419088 2.1719148 1.33 3.42z" fill="#4fba6f"/></g></g></svg>