<?xml version="1.0"?>
<svg xmlns="http://www.w3.org/2000/svg" id="Layer_5" enable-background="new 0 0 64 64" height="512" viewBox="0 0 64 64" width="512" class="hovered-paths"><g><g><g><g><path d="m18 38h2c1.1 0 2 .9 2 2v2c0 1.1-.9 2-2 2h-2-4-4-4-2c-1.1 0-2-.9-2-2v-2c0-1.1.9-2 2-2h2 4 4z" fill="#ffc729" data-original="#FFC729" class="hovered-path"/></g><g><path d="m18 50h2c1.1 0 2 .9 2 2v2c0 1.1-.9 2-2 2h-2-4-4-4-2c-1.1 0-2-.9-2-2v-2c0-1.1.9-2 2-2h2 4 4z" fill="#ffc729" data-original="#FFC729" class="hovered-path"/></g><g><path d="m34 50h-4-4-2c-1.1 0-2-.9-2-2v-2c0-1.1.9-2 2-2h2 4 4 4 2c1.1 0 2 .9 2 2v2c0 1.1-.9 2-2 2h-2z" fill="#ffc729" data-original="#FFC729" class="hovered-path"/></g><g><path d="m30 56h4 4 2c1.1 0 2 .9 2 2v2c0 1.1-.9 2-2 2h-16c-1.1 0-2-.9-2-2v-2c0-1.1.9-2 2-2h2z" fill="#ffc729" data-original="#FFC729" class="hovered-path"/></g><g><path d="m58 50h2c1.1 0 2 .9 2 2v2c0 1.1-.9 2-2 2h-2-4-4-4-2c-1.1 0-2-.9-2-2v-2c0-1.1.9-2 2-2h2 4 4z" fill="#ffc729" data-original="#FFC729" class="hovered-path"/></g><g><path d="m60 56c1.1 0 2 .9 2 2v2c0 1.1-.9 2-2 2h-16c-1.1 0-2-.9-2-2v-2c0-1.1.9-2 2-2h2 4 4 4z" fill="#fcd770" data-original="#FCD770"/></g><g><path d="m34 56h-4-4-2c-1.1 0-2-.9-2-2v-2c0-1.1.9-2 2-2h2 4 4 4 2c1.1 0 2 .9 2 2v2c0 1.1-.9 2-2 2h-2z" fill="#fcd770" data-original="#FCD770"/></g><g><path d="m18 56h2c1.1 0 2 .9 2 2v2c0 1.1-.9 2-2 2h-16c-1.1 0-2-.9-2-2v-2c0-1.1.9-2 2-2h2 4 4z" fill="#fcd770" data-original="#FCD770"/></g><g><path d="m18 44h2c1.1 0 2 .9 2 2v2c0 1.1-.9 2-2 2h-2-4-4-4-2c-1.1 0-2-.9-2-2v-2c0-1.1.9-2 2-2h2 4 4z" fill="#fcd770" data-original="#FCD770"/></g><g><path d="m10.26 32c2.29 1.28 4.93 2 7.74 2 1.36 0 2.68-.17 3.94-.48.03.16.06.31.06.48v2c0 1.1-.9 2-2 2h-2-4-4-4-2c-1.1 0-2-.9-2-2v-2c0-1.1.9-2 2-2h2 4 .25c0 .01.01 0 .01 0z" fill="#fcd770" data-original="#FCD770"/></g><g><path d="m28.68 6h18.32c4.42 0 8 3.58 8 8v20h2.43c.87 0 1.57.7 1.57 1.57 0 .28-.08.56-.22.8l-5.27 8.77c-.31.53-.89.86-1.51.86s-1.2-.33-1.51-.86l-5.27-8.77c-.14-.24-.22-.52-.22-.8 0-.87.7-1.57 1.57-1.57h2.43v-18c0-2.21-1.79-4-4-4h-12.16-.01c-.92-2.3-2.37-4.33-4.19-5.95z" fill="#ff826e" data-original="#FF826E"/></g><g><path d="m21.94 33.52c-1.26.31-2.58.48-3.94.48-2.81 0-5.45-.72-7.74-2 0 0-.01.01-.01 0-4.92-2.73-8.25-7.97-8.25-14 0-8.84 7.16-16 16-16 4.08 0 7.81 1.53 10.64 4.05 1.82 1.62 3.27 3.65 4.19 5.95.76 1.85 1.17 3.88 1.17 6 0 7.48-5.13 13.76-12.06 15.52z" fill="#ffc729" data-original="#FFC729" class="hovered-path"/></g><g><circle cx="18" cy="18" fill="#fcd770" r="12" data-original="#FCD770"/></g></g><g><path d="m63 52c0-1.654-1.346-3-3-3h-16c-.475 0-.919.121-1.319.319.198-.4.319-.844.319-1.319v-2c0-1.654-1.346-3-3-3h-16c-.475 0-.919.121-1.319.319.198-.4.319-.844.319-1.319v-2c0-.771-.301-1.468-.78-2 .48-.532.78-1.229.78-2v-1.753c6.941-2.14 12-8.613 12-16.247 0-1.74-.265-3.418-.753-5h10.753c1.654 0 3 1.346 3 3v17h-1.434c-1.415 0-2.566 1.151-2.566 2.566 0 .464.126.921.366 1.32l5.262 8.771c.497.828 1.406 1.343 2.372 1.343s1.875-.515 2.372-1.343l5.263-8.771c.239-.399.365-.855.365-1.32 0-1.415-1.151-2.566-2.566-2.566h-1.434v-19c0-4.962-4.038-9-9-9h-18.068c-2.958-2.492-6.77-4-10.932-4-9.374 0-17 7.626-17 17 0 5.212 2.363 9.879 6.068 13h-3.068c-1.654 0-3 1.346-3 3v2c0 .771.301 1.468.78 2-.479.532-.78 1.229-.78 2v2c0 .771.301 1.468.78 2-.479.532-.78 1.229-.78 2v2c0 .771.301 1.468.78 2-.479.532-.78 1.229-.78 2v2c0 .771.301 1.468.78 2-.479.532-.78 1.229-.78 2v2c0 1.654 1.346 3 3 3h16c.771 0 1.468-.301 2-.78.532.48 1.229.78 2 .78h16c.771 0 1.468-.301 2-.78.532.48 1.229.78 2 .78h16c1.654 0 3-1.346 3-3v-2c0-.771-.301-1.468-.78-2 .48-.532.78-1.229.78-2zm-19-1h1v2h2v-2h2v2h2v-2h2v2h2v-2h2v2h2v-2h1c.551 0 1 .449 1 1v2c0 .551-.449 1-1 1h-16c-.551 0-1-.449-1-1v-2c0-.551.449-1 1-1zm-20 4c-.551 0-1-.449-1-1v-2c0-.551.449-1 1-1h1v2h2v-2h2v2h2v-2h2v2h2v-2h2v2h2v-2h1c.551 0 1 .449 1 1v2c0 .551-.449 1-1 1zm-20 0c-.551 0-1-.449-1-1v-2c0-.551.449-1 1-1h1v2h2v-2h2v2h2v-2h2v2h2v-2h2v2h2v-2h1c.551 0 1 .449 1 1v2c0 .551-.449 1-1 1zm-1-7v-2c0-.551.449-1 1-1h1v2h2v-2h2v2h2v-2h2v2h2v-2h2v2h2v-2h1c.551 0 1 .449 1 1v2c0 .551-.449 1-1 1h-16c-.551 0-1-.449-1-1zm0-6v-2c0-.551.449-1 1-1h1v2h2v-2h2v2h2v-2h2v2h2v-2h2v2h2v-2h1c.551 0 1 .449 1 1v2c0 .551-.449 1-1 1h-16c-.551 0-1-.449-1-1zm21 3h1v2h2v-2h2v2h2v-2h2v2h2v-2h2v2h2v-2h1c.551 0 1 .449 1 1v2c0 .551-.449 1-1 1h-16c-.551 0-1-.449-1-1v-2c0-.551.449-1 1-1zm30-31v21h3.434c.312 0 .566.254.566.566 0 .103-.028.203-.081.291l-5.262 8.771c-.275.459-1.039.459-1.314 0l-5.262-8.77c-.053-.088-.081-.189-.081-.292 0-.312.254-.566.566-.566h3.434v-19c0-2.757-2.243-5-5-5h-11.526c-.66-1.453-1.513-2.799-2.536-4h16.062c3.86 0 7 3.14 7 7zm-51 4c0-8.271 6.729-15 15-15s15 6.729 15 15-6.729 15-15 15-15-6.729-15-15zm0 16c0-.551.449-1 1-1h1v2h2v-2h2v2h2v-1.526c2.138.971 4.503 1.526 7 1.526 1.025 0 2.024-.107 3-.281v1.281c0 .551-.449 1-1 1h-16c-.551 0-1-.449-1-1zm17 27h-16c-.551 0-1-.449-1-1v-2c0-.551.449-1 1-1h1v2h2v-2h2v2h2v-2h2v2h2v-2h2v2h2v-2h1c.551 0 1 .449 1 1v2c0 .551-.449 1-1 1zm20 0h-16c-.551 0-1-.449-1-1v-2c0-.551.449-1 1-1h1v2h2v-2h2v2h2v-2h2v2h2v-2h2v2h2v-2h1c.551 0 1 .449 1 1v2c0 .551-.449 1-1 1zm21-1c0 .551-.449 1-1 1h-16c-.551 0-1-.449-1-1v-2c0-.551.449-1 1-1h1v2h2v-2h2v2h2v-2h2v2h2v-2h2v2h2v-2h1c.551 0 1 .449 1 1z" data-original="#000000" class="active-path" style="fill:#04458F" data-old_color="#000000"/><path d="m17 24.883v2.117h2v-2.117c1.716-.411 3-1.948 3-3.789 0-1.684-1.073-3.172-2.67-3.705l-2.026-.676c-.781-.259-1.304-.986-1.304-1.807 0-1.051.855-1.906 1.906-1.906h.188c1.051 0 1.906.855 1.906 1.906v.094l2-.094c0-1.841-1.284-3.378-3-3.789v-2.117h-2v2.117c-1.716.411-3 1.948-3 3.789 0 1.684 1.073 3.172 2.67 3.705l2.026.676c.78.26 1.303.986 1.303 1.808.001 1.05-.854 1.905-1.905 1.905h-.188c-1.051 0-1.906-.855-1.906-1.906v-1.094h-2v1.094c0 1.841 1.284 3.378 3 3.789z" data-original="#000000" class="active-path" style="fill:#04458F" data-old_color="#000000"/><path d="m18 31c7.168 0 13-5.832 13-13s-5.832-13-13-13-13 5.832-13 13 5.832 13 13 13zm0-24c6.065 0 11 4.935 11 11s-4.935 11-11 11-11-4.935-11-11 4.935-11 11-11z" data-original="#000000" class="active-path" style="fill:#04458F" data-old_color="#000000"/></g></g></g> </svg>
