<?xml version="1.0"?>
<svg xmlns="http://www.w3.org/2000/svg" height="512" viewBox="-21 -22 681.33183 681" width="512"><g><path d="m636.03125 582.847656-39.667969-66.230468c-6.203125-10.078126-20.390625-12.535157-29.1875-3.742188l-13.097656 13.472656-53.132813-53.136718-26.570312 26.566406 53.136719 53.136718-13.472657 13.097657c-8.324218 7.566406-6.96875 22.59375 3.742188 29.1875l66.230469 39.667969c6.9375 4.328124 16.550781 3.289062 22.832031-3l26.195312-26.191407c6.359376-6.359375 7.480469-15.71875 2.992188-22.828125zm0 0" data-original="#000000" class="active-path" style="fill:#FFFFFF" data-old_color="#000000"/><path d="m328.804688 248.308594c-7.109376-7.109375-19.082032-7.109375-26.570313 0l-52.761719 52.761718c-7.109375 7.484376-7.109375 19.460938 0 26.570313l66.160156 66.160156c77.476563-77.5 42.285157-42.292969 77.722657-77.734375.015625-.871094.023437-1.75.0625-2.621094 0-.175781 0-.347656.011719-.511718zm0 0" data-original="#000000" class="active-path" style="fill:#FFFFFF" data-old_color="#000000"/><path d="m511.046875 410.339844c28.808594 3.742187 58.375-5.609375 78.957031-26.195313 32.183594-32.183593 35.925782-81.203125 11.976563-117.875l-64.742188 64.738281c-7.65625 7.65625-19.28125 7.285157-26.566406 0-7.109375-7.109374-7.109375-19.085937 0-26.570312l64.734375-64.734375c-36.296875-23.578125-85.691406-19.835937-117.5 11.972656-20.953125 20.578125-30.308594 50.144531-26.191406 78.957031l-106.652344 106.652344c-28.816406-4.121094-58.378906 5.238282-78.957031 26.191406-31.808594 31.808594-35.550781 81.203126-11.972657 117.503907l64.734376-64.738281c7.488281-7.105469 19.460937-7.105469 26.570312 0 7.484375 7.484374 7.484375 19.085937 0 26.566406l-64.738281 64.742187c34.949219 23.292969 85.195312 20.703125 117.875-11.972656 20.582031-20.585937 29.9375-50.144531 26.195312-78.960937zm0 0" data-original="#000000" class="active-path" style="fill:#FFFFFF" data-old_color="#000000"/><path d="m222.902344 274.878906 13.847656-13.847656c-5.992188-2.996094-9.726562-9.355469-9.726562-16.464844 0-10.480468 8.230468-18.710937 18.707031-18.710937 7.109375 0 13.46875 3.738281 16.464843 9.726562l13.847657-13.84375c10.476562-10.476562 24.695312-16.464843 39.664062-16.464843s29.1875 5.988281 39.667969 16.464843l47.523438 47.523438c5.984374-16.464844 16.089843-31.429688 28.816406-44.15625 16.089844-16.089844 35.921875-27.6875 57.25-33.304688v-3.367187h-488.964844v112.261718h208.683594c2.246094-9.351562 6.734375-18.332031 14.21875-25.816406zm-126.855469-11.601562c-10.476563 0-18.707031-8.234375-18.707031-18.710938 0-10.480468 8.230468-18.710937 18.707031-18.710937s18.710937 8.230469 18.710937 18.710937c0 10.476563-8.234374 18.710938-18.710937 18.710938zm74.84375 0c-10.480469 0-18.710937-8.234375-18.710937-18.710938 0-10.480468 8.230468-18.710937 18.710937-18.710937 10.476563 0 18.710937 8.230469 18.710937 18.710937 0 10.476563-8.234374 18.710938-18.710937 18.710938zm0 0" data-original="#000000" class="active-path" style="fill:#FFFFFF" data-old_color="#000000"/><path d="m264.445312 395.375c-.753906 10.101562-8.613281 17.585938-18.714843 17.585938-10.476563 0-18.707031-8.234376-18.707031-18.714844 0-10.101563 7.480468-17.957032 17.585937-18.707032l-21.707031-21.328124c-4.863282-4.867188-8.230469-10.105469-10.851563-16.09375h-212.050781v130.972656c0 10.480468 8.230469 18.710937 18.707031 18.710937h169.660157c6.207031-18.683593 16.652343-36.113281 31.167968-50.667969 14.957032-15.191406 33.691406-26.332031 54.113282-32.554687zm-168.398437 17.585938c-10.476563 0-18.707031-8.234376-18.707031-18.714844 0-10.476563 8.230468-18.707032 18.707031-18.707032s18.710937 8.230469 18.710937 18.707032c0 10.480468-8.234374 18.714844-18.710937 18.714844zm74.84375 0c-10.480469 0-18.710937-8.234376-18.710937-18.714844 0-10.476563 8.230468-18.707032 18.710937-18.707032 10.476563 0 18.710937 8.230469 18.710937 18.707032 0 10.480468-8.234374 18.714844-18.710937 18.714844zm0 0" data-original="#000000" class="active-path" style="fill:#FFFFFF" data-old_color="#000000"/><path d="m488.964844 18.792969c0-10.480469-8.230469-18.7109378-18.707032-18.7109378h-451.550781c-10.476562 0-18.707031 8.2304688-18.707031 18.7109378v132.21875h488.964844zm-392.917969 94.796875c-10.476563 0-18.707031-8.230469-18.707031-18.707032 0-10.476562 8.230468-18.707031 18.707031-18.707031s18.710937 8.230469 18.710937 18.707031c0 10.476563-8.234374 18.707032-18.710937 18.707032zm74.84375 0c-10.480469 0-18.710937-8.230469-18.710937-18.707032 0-10.476562 8.230468-18.707031 18.710937-18.707031 10.476563 0 18.710937 8.230469 18.710937 18.707031 0 10.476563-8.234374 18.707032-18.710937 18.707032zm74.839844 0c-10.476563 0-18.707031-8.230469-18.707031-18.707032 0-10.476562 8.230468-18.707031 18.707031-18.707031 10.476562 0 18.714843 8.230469 18.714843 18.707031 0 10.476563-8.238281 18.707032-18.714843 18.707032zm0 0" data-original="#000000" class="active-path" style="fill:#FFFFFF" data-old_color="#000000"/></g> </svg>
